<?xml version="1.0" encoding="UTF-8"?>
<svg width="37px" height="37px" viewBox="0 0 37 37" version="1.1" xmlns="http://www.w3.org/2000/svg" xmlns:xlink="http://www.w3.org/1999/xlink">
    <!-- Generator: sketchtool 63.1 (101010) - https://sketch.com -->
    <title>82F01831-A9B8-4A51-8807-5DD45E31513B</title>
    <desc>Created with sketchtool.</desc>
    <g id="Donaciones" stroke="none" stroke-width="1" fill="none" fill-rule="evenodd">
        <g id="donaciones" transform="translate(-25.000000, -11.000000)">
            <g id="btn-menu" transform="translate(25.000000, 11.000000)">
                <circle id="Oval" fill="#F6EEFF" cx="18.5" cy="18.5" r="18.5"></circle>
                <g id="i-menu" transform="translate(9.000000, 9.000000)" fill="#6345B4">
                    <g transform="translate(1.700000, 3.200000)">
                        <path d="M15.8210526,1.85964912 L0.878947368,1.85964912 C0.393475439,1.85964912 0,1.45674912 0,0.959649123 C0,0.462549123 0.393475439,0.0596491228 0.878947368,0.0596491228 L15.8210526,0.0596491228 C16.3065246,0.0596491228 16.7,0.462549123 16.7,0.959649123 C16.7,1.45674912 16.3065246,1.85964912 15.8210526,1.85964912" id="Fill-1"></path>
                        <path d="M15.8210526,7.75964912 L0.878947368,7.75964912 C0.393475439,7.75964912 0,7.35674912 0,6.85964912 C0,6.36254912 0.393475439,5.95964912 0.878947368,5.95964912 L15.8210526,5.95964912 C16.3065246,5.95964912 16.7,6.36254912 16.7,6.85964912 C16.7,7.35674912 16.3065246,7.75964912 15.8210526,7.75964912" id="Fill-3"></path>
                        <path d="M15.8210526,13.6596491 L0.878947368,13.6596491 C0.393475439,13.6596491 0,13.2567491 0,12.7596491 C0,12.2625491 0.393475439,11.8596491 0.878947368,11.8596491 L15.8210526,11.8596491 C16.3065246,11.8596491 16.7,12.2625491 16.7,12.7596491 C16.7,13.2567491 16.3065246,13.6596491 15.8210526,13.6596491" id="Fill-5"></path>
                    </g>
                </g>
            </g>
        </g>
    </g>
</svg>