<?xml version="1.0" encoding="UTF-8"?>
<svg width="211px" height="90px" viewBox="0 0 211 90" version="1.1" xmlns="http://www.w3.org/2000/svg" xmlns:xlink="http://www.w3.org/1999/xlink">
    <!-- Generator: sketchtool 63.1 (101010) - https://sketch.com -->
    <title>6F4236D6-3741-49FF-B641-8901163524C4</title>
    <desc>Created with sketchtool.</desc>
    <defs>
        <polygon id="path-1" points="2.66219619e-05 0.00041015625 210 0.00041015625 210 210 2.66219619e-05 210"></polygon>
    </defs>
    <g id="Log-in/Sign-in" stroke="none" stroke-width="1" fill="none" fill-rule="evenodd" opacity="0.486490885">
        <g id="Splash-2" transform="translate(-80.000000, -577.000000)">
            <g id="i-corona" transform="translate(65.000000, 562.000000)">
                <g transform="translate(15.600000, 15.600000)">
                    <g id="Group-3">
                        <mask id="mask-2" fill="white">
                            <use xlink:href="#path-1"></use>
                        </mask>
                        <g id="Clip-2"></g>
                        <path d="M105.000369,172.576441 C67.7389043,172.576441 37.4242559,142.261793 37.4242559,105.000328 C37.4242559,67.7388633 67.7389043,37.4242148 105.000369,37.4242148 C142.261834,37.4242148 172.576482,67.7388633 172.576482,105.000328 C172.576482,142.261793 142.261834,172.576441 105.000369,172.576441 M205.439021,118.60316 C202.272615,117.754137 198.814178,119.557184 197.904041,122.953688 L197.761717,123.48525 L183.526014,119.670387 C184.412771,114.912984 184.88117,110.010387 184.88117,104.999918 C184.88117,99.9890391 184.412361,95.0860312 183.525604,90.3282187 L197.761307,86.5137656 L197.903631,87.0453281 C198.813768,90.441832 202.272615,92.2444687 205.438611,91.3954453 C208.720682,90.5160703 210.668514,87.1425352 209.788729,83.8604648 L206.319217,70.9122422 C205.439432,67.6301719 202.067947,65.6819297 198.784236,66.562125 C195.502166,67.4415 193.554744,70.8150352 194.434119,74.0971055 L194.576443,74.628668 L180.336639,78.4443516 C177.018475,69.0591562 171.996111,60.4733555 165.6391,53.0622422 L176.090291,42.6110508 L176.479529,43.0002862 C178.881404,45.4025742 182.777479,45.4033945 185.180174,43.0002862 C187.582869,40.5975938 187.582869,36.7023398 185.180174,34.2996445 L175.701463,24.8209336 C173.299178,22.4182383 169.403514,22.4182383 167.000818,24.8209336 C164.598123,27.2236289 164.598123,31.1188828 167.000818,33.5215781 L167.390057,33.9108164 L156.938865,44.3615977 C149.526932,38.0041758 140.940721,32.9814023 131.555115,29.6636484 L135.370389,15.4246641 L135.901951,15.5669883 C139.31199,16.4808164 142.59324,14.3660508 143.436932,11.2168711 C144.316307,7.93480078 142.368885,4.56126562 139.086814,3.68189062 L126.138592,0.212378906 C122.856111,-0.66740625 119.482576,1.28083594 118.603611,4.56249609 C117.723826,7.84456641 119.671658,11.2181016 122.953318,12.0974766 L123.485291,12.2398008 L119.670838,26.4755039 C114.913436,25.5887461 110.010838,25.1203477 105.000369,25.1203477 C99.9899004,25.1203477 95.0873027,25.5887461 90.3299004,26.4755039 L86.5154473,12.2398008 L87.0470098,12.0974766 C90.3290801,11.2181016 92.276502,7.84456641 91.397127,4.56249609 C90.5181621,1.28001562 87.144627,-0.668226562 83.8625566,0.211558594 L70.914334,3.68107031 C67.6322637,4.56044531 65.6848418,7.93398047 66.5642168,11.2160508 C67.4079082,14.3656406 70.6891582,16.4804062 74.0991973,15.566168 L74.6307598,15.4238437 L78.4460332,29.6628281 C69.0604277,32.9809922 60.4742168,38.0033555 53.0622832,44.3607773 L42.6110918,33.9099961 L43.0003301,33.5207578 C45.4030254,31.1180625 45.4030254,27.2228086 43.0003301,24.8201133 C40.5980449,22.417418 36.7023809,22.417418 34.2996855,24.8201133 L24.8209746,34.2988242 C22.4182793,36.7015195 22.4182793,40.5967734 24.8209746,42.9994687 C27.2236699,45.4025742 31.1197441,45.4017539 33.5216191,42.9994687 L33.9108574,42.6102305 L44.3620488,53.0614219 C38.0050371,60.4729453 32.9826738,69.0587461 29.6645098,78.4435312 L15.4247051,74.6278477 L15.5670293,74.0962852 C16.4464043,70.8142148 14.4989824,67.4406797 11.2169121,66.5613047 C7.93320117,65.6811094 4.56130664,67.6293516 3.68193164,70.9114219 L0.211599609,83.860875 C-0.667775391,87.1429453 1.27964648,90.5164805 4.5617168,91.3958555 C7.72812305,92.2448789 11.1865605,90.441832 12.0966973,87.0457383 L12.2390215,86.5141758 L26.4747246,90.3286289 C25.5879668,95.0864414 25.1191582,99.9894492 25.1191582,105.000328 C25.1191582,110.010797 25.5875566,114.913395 26.4743145,119.670797 L12.2386113,123.48566 L12.0962871,122.953688 C11.1861504,119.557184 7.72730273,117.754547 4.56130664,118.60357 C1.27923633,119.482945 -0.668185547,122.85648 0.211189453,126.138551 L3.68070117,139.087184 C4.56048633,142.369254 7.9319707,144.317496 11.2156816,143.436891 C14.497752,142.557926 16.4451738,139.18398 15.5657988,135.90191 L15.4234746,135.370348 L29.662459,131.555074 C32.980623,140.94068 38.0029863,149.526891 44.3604082,156.938824 L33.9092168,167.390016 L33.5199785,167.000777 C31.1181035,164.598492 27.2220293,164.597672 24.819334,167.000777 C22.4166387,169.403473 22.4166387,173.298727 24.819334,175.701422 L34.2980449,185.180133 C36.7003301,187.582828 40.5959941,187.582828 42.9986895,185.180133 C45.4013848,182.777437 45.4013848,178.882184 42.9986895,176.479898 L42.6094512,176.09025 L53.0606426,165.639469 C60.4725762,171.996891 69.0587871,177.019664 78.4443926,180.337418 L74.6291191,194.576402 L74.0975566,194.434078 C70.6875176,193.52025 67.4062676,195.635016 66.5625762,198.784195 C65.6832012,202.066266 67.630623,205.439801 70.9126934,206.319586 L83.860916,209.789098 C87.1433965,210.668473 90.5169316,208.72023 91.3958965,205.43857 C92.2752715,202.1565 90.3278496,198.783375 87.0457793,197.90359 L86.5142168,197.761266 L90.3286699,183.525562 C95.0860723,184.41232 99.9886699,184.880719 104.999139,184.880719 C110.009607,184.880719 114.912205,184.41232 119.669607,183.525562 L123.484061,197.761266 L122.952498,197.90359 C119.670428,198.783375 117.723006,202.1565 118.602381,205.43857 C119.481756,208.72023 122.854881,210.668473 126.137361,209.789098 L139.085584,206.319586 C142.367654,205.439801 144.315076,202.066266 143.435701,198.784195 C142.59201,195.634605 139.31076,193.52025 135.900721,194.434078 L135.369158,194.576402 L131.553885,180.337418 C140.93949,177.019254 149.525701,171.996891 156.937635,165.639469 L167.388826,176.09025 L166.999588,176.479898 C164.596893,178.882184 164.596893,182.777437 166.999588,185.180133 C169.401873,187.582828 173.297537,187.582828 175.700232,185.180133 L185.178943,175.701422 C187.581639,173.298727 187.581639,169.403473 185.178943,167.000777 C182.776248,164.597672 178.880174,164.598492 176.478299,167.000777 L176.089061,167.390016 L165.637869,156.938824 C171.995291,149.526891 177.018064,140.94068 180.335818,131.555074 L194.574803,135.370348 L194.432479,135.90191 C193.553104,139.18398 195.500525,142.557926 198.782596,143.436891 C202.066307,144.317496 205.438201,142.369254 206.317576,139.087184 L209.787088,126.138551 C210.668514,122.85607 208.721092,119.482535 205.439021,118.60316" id="Fill-1" fill="#CAB8FA" mask="url(#mask-2)"></path>
                    </g>
                    <path d="M106.8,52.8 C110.1136,52.8 112.8,55.486 112.8,58.8 C112.8,62.1136 110.1136,64.8 106.8,64.8 C103.4864,64.8 100.8,62.1136 100.8,58.8 C100.8,55.486 103.4864,52.8 106.8,52.8" id="Fill-4" fill="#CAB8FA"></path>
                    <path d="M118.8,85.2 C122.1136,85.2 124.8,87.886 124.8,91.2 C124.8,94.5136 122.1136,97.2 118.8,97.2 C115.4864,97.2 112.8,94.5136 112.8,91.2 C112.8,87.886 115.4864,85.2 118.8,85.2" id="Fill-12" fill="#CAB8FA"></path>
                    <path d="M91.2,85.2 C94.5136,85.2 97.2,87.886 97.2,91.2 C97.2,94.5136 94.5136,97.2 91.2,97.2 C87.886,97.2 85.2,94.5136 85.2,91.2 C85.2,87.886 87.886,85.2 91.2,85.2" id="Fill-14" fill="#CAB8FA"></path>
                    <path d="M139.2,64.8 C142.5136,64.8 145.2,67.4864 145.2,70.8 C145.2,74.1136 142.5136,76.8 139.2,76.8 C135.8864,76.8 133.2,74.1136 133.2,70.8 C133.2,67.4864 135.8864,64.8 139.2,64.8" id="Fill-20" fill="#CAB8FA"></path>
                    <path d="M70.8,64.8 C74.1136,64.8 76.8,67.4864 76.8,70.8 C76.8,74.1136 74.1136,76.8 70.8,76.8 C67.4864,76.8 64.8,74.1136 64.8,70.8 C64.8,67.4864 67.4864,64.8 70.8,64.8" id="Fill-26" fill="#CAB8FA"></path>
                </g>
            </g>
        </g>
    </g>
</svg>