<?xml version="1.0" encoding="UTF-8"?>
<svg width="107px" height="107px" viewBox="0 0 107 107" version="1.1" xmlns="http://www.w3.org/2000/svg" xmlns:xlink="http://www.w3.org/1999/xlink">
    <!-- Generator: sketchtool 63.1 (101010) - https://sketch.com -->
    <title>70E65645-D0E7-4D81-B751-C9A6C31DF3A4</title>
    <desc>Created with sketchtool.</desc>
    <defs>
        <polygon id="path-1" points="1.35328307e-05 0.000208496094 106.75 0.000208496094 106.75 106.75 1.35328307e-05 106.75"></polygon>
    </defs>
    <g id="Log-in/Sign-in" stroke="none" stroke-width="1" fill="none" fill-rule="evenodd">
        <g id="Splash-2" transform="translate(-135.000000, -132.000000)">
            <g id="i-corona-copy" transform="translate(127.000000, 124.000000)">
                <g id="i-corona" transform="translate(7.930000, 7.930000)">
                    <g id="Group-3">
                        <mask id="mask-2" fill="white">
                            <use xlink:href="#path-1"></use>
                        </mask>
                        <g id="Clip-2"></g>
                        <path d="M53.3751876,87.7263577 C34.433943,87.7263577 19.0239967,72.3164114 19.0239967,53.3751668 C19.0239967,34.4339222 34.433943,19.0239759 53.3751876,19.0239759 C72.3164323,19.0239759 87.7263786,34.4339222 87.7263786,53.3751668 C87.7263786,72.3164114 72.3164323,87.7263577 53.3751876,87.7263577 M104.431503,60.2899397 C102.821913,59.8583528 101.063874,60.7749017 100.601221,62.5014578 L100.528873,62.7716687 L93.2923903,60.8324466 C93.7431588,58.4141004 93.9812614,55.9219466 93.9812614,53.3749583 C93.9812614,50.8277615 93.7429503,48.3353992 93.2921818,45.9168445 L100.528664,43.9778309 L100.601012,44.2480418 C101.063665,45.9745979 102.821913,46.8909383 104.431294,46.4593514 C106.09968,46.0123357 107.089828,44.2974554 106.642604,42.6290696 L104.878935,36.0470564 C104.431711,34.3786707 102.717873,33.3883143 101.048653,33.8357469 C99.3802677,34.2827625 98.3903283,35.9976429 98.8373439,37.6660286 L98.909692,37.9362396 L91.6711247,39.8758787 C89.9843913,35.1050711 87.4313566,30.7406224 84.1998756,26.9733064 L89.5125646,21.6606175 L89.7104274,21.8584803 C90.9313805,23.0796419 92.9118849,23.0800589 94.133255,21.8584803 C95.3546251,20.6371102 95.3546251,18.6570228 94.133255,17.4356526 L89.3149103,12.6173079 C88.0937487,11.3959378 86.1134528,11.3959378 84.8920827,12.6173079 C83.6707125,13.838678 83.6707125,15.8187654 84.8920827,17.0401355 L85.0899455,17.2379983 L79.7772565,22.5504788 C76.0095236,19.3187894 71.6448664,16.7655462 66.8738502,15.0790213 L68.8132809,7.8408709 L69.0834918,7.91321904 C70.8169284,8.37774834 72.4848971,7.30274248 72.9137736,5.70190947 C73.3607892,4.03352373 72.3708498,2.31864336 70.702464,1.87162773 L64.1204508,0.107959277 C62.4518566,-0.339264844 60.7369762,0.651091602 60.2901691,2.31926885 C59.842945,3.98765459 60.8330929,5.70253496 62.5012702,6.14955059 L62.7716896,6.22189873 L60.8326759,13.4583812 C58.4143297,13.0076126 55.9221759,12.7695101 53.3751876,12.7695101 C50.8281994,12.7695101 48.3360456,13.0076126 45.9176994,13.4583812 L43.9786857,6.22189873 L44.2488966,6.14955059 C45.9172824,5.70253496 46.9072218,3.98765459 46.4602062,2.31926885 C46.0133991,0.650674609 44.2985187,-0.339681836 42.630133,0.107542285 L36.0481198,1.87121074 C34.379734,2.31822637 33.3897946,4.03310674 33.8368102,5.70149248 C34.2656867,7.30253398 35.9336554,8.37753984 37.6670919,7.91280205 L37.9373029,7.84045391 L39.8767335,15.0786043 C35.1057174,16.7653377 30.7410602,19.3183724 26.9733273,22.5500618 L21.6606383,17.2375813 L21.8585011,17.0397186 C23.0798712,15.8183484 23.0798712,13.838261 21.8585011,12.6168909 C20.6373395,11.3955208 18.6570436,11.3955208 17.4356735,12.6168909 L12.6173288,17.4352356 C11.3959586,18.6566058 11.3959586,20.6366932 12.6173288,21.8580633 C13.8386989,23.0796419 15.8192033,23.0792249 17.0401564,21.8580633 L17.2380192,21.6602005 L22.5507082,26.9728895 C19.3192272,30.7404139 16.7661925,35.1048626 15.0794591,39.8754617 L7.84089175,37.9358226 L7.91323989,37.6656116 C8.36025552,35.9972259 7.37031606,34.2823455 5.70193032,33.8353299 C4.0327106,33.3878973 2.31866421,34.3782537 1.87164858,36.0466395 L0.107563135,42.6292781 C-0.33945249,44.2976639 0.650486963,46.0125442 2.31887271,46.4595599 C3.92846255,46.8911468 5.68650161,45.9745979 6.14915444,44.2482503 L6.22150259,43.9780394 L13.457985,45.917053 C13.0072165,48.3356077 12.7689054,50.82797 12.7689054,53.3751668 C12.7689054,55.9221551 13.007008,58.4143089 13.4577765,60.8326551 L6.22129409,62.7718772 L6.14894595,62.5014578 C5.68629312,60.7749017 3.92804556,59.8585613 2.31866421,60.2901482 C0.650278467,60.7371639 -0.339660986,62.4520442 0.107354639,64.12043 L1.8710231,70.7026517 C2.31824722,72.3710374 4.03208511,73.3613938 5.70130483,72.9137527 C7.36969058,72.4669456 8.35963003,70.7518567 7.9126144,69.083471 L7.84026626,68.8132601 L15.0784167,66.8738294 C16.76515,71.6448455 19.3181847,76.0095027 22.5498742,79.7772356 L17.2371852,85.0899246 L17.0393224,84.8920618 C15.8183693,83.6709002 13.8378649,83.6704832 12.6164948,84.8920618 C11.3951247,86.1134319 11.3951247,88.0935193 12.6164948,89.3148895 L17.4348395,94.1332342 C18.6560011,95.3546043 20.636297,95.3546043 21.8576671,94.1332342 C23.0790373,92.9118641 23.0790373,90.9317767 21.8576671,89.710615 L21.6598043,89.5125437 L26.9724933,84.2000633 C30.7402262,87.4317527 35.1048834,89.9849959 39.8758996,91.6715208 L37.9364689,98.9096712 L37.666258,98.837323 C35.9328214,98.3727938 34.2648527,99.4477996 33.8359762,101.048633 C33.3889606,102.717018 34.3789,104.431899 36.0472858,104.879123 L42.629299,106.642791 C44.2978932,107.089807 46.0127736,106.09945 46.4595807,104.431273 C46.9065963,102.762888 45.9166569,101.048216 44.2482711,100.600992 L43.9780602,100.528643 L45.9170739,93.2921609 C48.3354201,93.7429295 50.8275739,93.981032 53.3745622,93.981032 C55.9215504,93.981032 58.4137042,93.7429295 60.8320504,93.2921609 L62.7710641,100.528643 L62.5008532,100.600992 C60.8324674,101.048216 59.842528,102.762888 60.2895436,104.431273 C60.7365592,106.09945 62.4512311,107.089807 64.1198253,106.642791 L70.7018385,104.879123 C72.3702243,104.431899 73.3601637,102.717018 72.9131481,101.048633 C72.4842716,99.4475911 70.8163029,98.3727938 69.0828664,98.837323 L68.8126554,98.9096712 L66.8732248,91.6715208 C71.6442409,89.9847874 76.0088981,87.4317527 79.776631,84.2000633 L85.08932,89.5125437 L84.8914572,89.710615 C83.6700871,90.9317767 83.6700871,92.9118641 84.8914572,94.1332342 C86.1126188,95.3546043 88.0929147,95.3546043 89.3142848,94.1332342 L94.1326295,89.3148895 C95.3539997,88.0935193 95.3539997,86.1134319 94.1326295,84.8920618 C92.9112594,83.6704832 90.930755,83.6709002 89.7098019,84.8920618 L89.5119391,85.0899246 L84.1992501,79.7772356 C87.4309396,76.0095027 89.9841828,71.6448455 91.6707077,66.8738294 L98.9088581,68.8132601 L98.8365099,69.083471 C98.3894943,70.7518567 99.3794337,72.4669456 101.047819,72.9137527 C102.717039,73.3613938 104.431086,72.3710374 104.878101,70.7026517 L106.64177,64.12043 C107.089828,62.4518357 106.099888,60.7369554 104.431503,60.2899397" id="Fill-1" fill="#CAB8FA" mask="url(#mask-2)"></path>
                    </g>
                    <path d="M54.29,26.84 C55.9744133,26.84 57.34,28.2053833 57.34,29.89 C57.34,31.5744133 55.9744133,32.94 54.29,32.94 C52.6055867,32.94 51.24,31.5744133 51.24,29.89 C51.24,28.2053833 52.6055867,26.84 54.29,26.84" id="Fill-4" fill="#CAB8FA"></path>
                    <path d="M54.29,73.81 C55.9744133,73.81 57.34,75.1755867 57.34,76.86 C57.34,78.5444133 55.9744133,79.91 54.29,79.91 C52.6055867,79.91 51.24,78.5444133 51.24,76.86 C51.24,75.1755867 52.6055867,73.81 54.29,73.81" id="Fill-6" fill="#CAB8FA"></path>
                    <path d="M46.36,57.34 C48.0444133,57.34 49.41,58.7055867 49.41,60.39 C49.41,62.0744133 48.0444133,63.44 46.36,63.44 C44.6753833,63.44 43.31,62.0744133 43.31,60.39 C43.31,58.7055867 44.6753833,57.34 46.36,57.34" id="Fill-8" fill="#CAB8FA"></path>
                    <path d="M60.39,57.34 C62.0744133,57.34 63.44,58.7055867 63.44,60.39 C63.44,62.0744133 62.0744133,63.44 60.39,63.44 C58.7055867,63.44 57.34,62.0744133 57.34,60.39 C57.34,58.7055867 58.7055867,57.34 60.39,57.34" id="Fill-10" fill="#CAB8FA"></path>
                    <path d="M60.39,43.31 C62.0744133,43.31 63.44,44.6753833 63.44,46.36 C63.44,48.0444133 62.0744133,49.41 60.39,49.41 C58.7055867,49.41 57.34,48.0444133 57.34,46.36 C57.34,44.6753833 58.7055867,43.31 60.39,43.31" id="Fill-12" fill="#CAB8FA"></path>
                    <path d="M46.36,43.31 C48.0444133,43.31 49.41,44.6753833 49.41,46.36 C49.41,48.0444133 48.0444133,49.41 46.36,49.41 C44.6753833,49.41 43.31,48.0444133 43.31,46.36 C43.31,44.6753833 44.6753833,43.31 46.36,43.31" id="Fill-14" fill="#CAB8FA"></path>
                    <path d="M76.86,49.41 C78.5444133,49.41 79.91,50.7755867 79.91,52.46 C79.91,54.1444133 78.5444133,55.51 76.86,55.51 C75.1755867,55.51 73.81,54.1444133 73.81,52.46 C73.81,50.7755867 75.1755867,49.41 76.86,49.41" id="Fill-16" fill="#CAB8FA"></path>
                    <path d="M29.89,49.41 C31.5744133,49.41 32.94,50.7755867 32.94,52.46 C32.94,54.1444133 31.5744133,55.51 29.89,55.51 C28.2053833,55.51 26.84,54.1444133 26.84,52.46 C26.84,50.7755867 28.2053833,49.41 29.89,49.41" id="Fill-18" fill="#CAB8FA"></path>
                    <path d="M70.76,32.94 C72.4444133,32.94 73.81,34.3055867 73.81,35.99 C73.81,37.6744133 72.4444133,39.04 70.76,39.04 C69.0755867,39.04 67.71,37.6744133 67.71,35.99 C67.71,34.3055867 69.0755867,32.94 70.76,32.94" id="Fill-20" fill="#CAB8FA"></path>
                    <path d="M35.99,67.71 C37.6744133,67.71 39.04,69.0755867 39.04,70.76 C39.04,72.4444133 37.6744133,73.81 35.99,73.81 C34.3055867,73.81 32.94,72.4444133 32.94,70.76 C32.94,69.0755867 34.3055867,67.71 35.99,67.71" id="Fill-22" fill="#CAB8FA"></path>
                    <path d="M70.76,67.71 C72.4444133,67.71 73.81,69.0755867 73.81,70.76 C73.81,72.4444133 72.4444133,73.81 70.76,73.81 C69.0755867,73.81 67.71,72.4444133 67.71,70.76 C67.71,69.0755867 69.0755867,67.71 70.76,67.71" id="Fill-24" fill="#CAB8FA"></path>
                    <path d="M35.99,32.94 C37.6744133,32.94 39.04,34.3055867 39.04,35.99 C39.04,37.6744133 37.6744133,39.04 35.99,39.04 C34.3055867,39.04 32.94,37.6744133 32.94,35.99 C32.94,34.3055867 34.3055867,32.94 35.99,32.94" id="Fill-26" fill="#CAB8FA"></path>
                </g>
            </g>
        </g>
    </g>
</svg>